<svg xmlns="http://www.w3.org/2000/svg" xmlns:xlink="http://www.w3.org/1999/xlink" width="500" zoomAndPan="magnify" viewBox="0 0 375 374.999991" height="500" preserveAspectRatio="xMidYMid meet" version="1.0"><defs><g/><clipPath id="4b1b899d1b"><path d="M 139 22.9375 L 216 22.9375 L 216 297.1875 L 139 297.1875 Z M 139 22.9375 " clip-rule="nonzero"/></clipPath><clipPath id="55a0c8b054"><path d="M 45.933594 22.9375 L 122 22.9375 L 122 297.1875 L 45.933594 297.1875 Z M 45.933594 22.9375 " clip-rule="nonzero"/></clipPath></defs><path fill="#5e17eb" d="M 227.816406 93.539062 C 226.710938 87.984375 221.253906 84.3125 215.632812 85.480469 C 215.5 85.515625 215.371094 85.578125 215.242188 85.613281 L 215.207031 128.367188 L 254.75 286.886719 C 255.886719 292.507812 261.34375 296.148438 266.933594 294.976562 C 272.519531 293.875 276.128906 288.382812 274.992188 282.792969 Z M 227.816406 93.539062 " fill-opacity="1" fill-rule="nonzero"/><path fill="#5e17eb" d="M 249.714844 89.183594 C 249.226562 86.75 246.820312 85.15625 244.386719 85.644531 C 241.949219 86.132812 240.355469 88.566406 240.84375 91.003906 L 287.988281 280.066406 C 288.472656 282.5 290.910156 284.125 293.347656 283.605469 C 295.785156 283.117188 297.375 280.714844 296.855469 278.277344 Z M 249.714844 89.183594 " fill-opacity="1" fill-rule="nonzero"/><path fill="#5e17eb" d="M 273.367188 84.410156 C 272.878906 81.972656 270.472656 80.347656 268.039062 80.867188 C 265.601562 81.355469 264.007812 83.757812 264.496094 86.195312 L 311.640625 275.289062 C 312.160156 277.691406 314.53125 279.316406 316.96875 278.832031 C 319.4375 278.34375 320.996094 275.90625 320.507812 273.46875 Z M 273.367188 84.410156 " fill-opacity="1" fill-rule="nonzero"/><path fill="#5e17eb" d="M 305.984375 77.683594 C 304.847656 72.128906 299.390625 68.457031 293.769531 69.625 C 288.183594 70.730469 284.574219 76.222656 285.679688 81.808594 L 332.886719 271.03125 C 334.023438 276.652344 339.484375 280.261719 345.070312 279.121094 C 350.691406 277.984375 354.300781 272.527344 353.160156 266.9375 Z M 305.984375 77.683594 " fill-opacity="1" fill-rule="nonzero"/><g clip-path="url(#4b1b899d1b)"><path fill="#5e17eb" d="M 215.242188 85.613281 L 215.242188 41.488281 C 215.304688 31.253906 207.019531 23.003906 196.785156 23.003906 L 158.1875 22.9375 C 147.988281 22.9375 139.734375 31.191406 139.703125 41.425781 L 139.605469 278.667969 C 139.605469 288.835938 147.855469 297.15625 158.058594 297.15625 L 196.625 297.1875 C 206.859375 297.1875 215.144531 288.902344 215.144531 278.734375 L 215.207031 128.367188 L 207.542969 97.664062 C 206.46875 92.238281 209.878906 86.910156 215.242188 85.613281 Z M 193.117188 269.863281 L 161.796875 269.832031 C 158.222656 269.832031 155.296875 266.90625 155.296875 263.363281 C 155.328125 259.792969 158.222656 256.867188 161.796875 256.867188 L 193.117188 256.898438 C 196.691406 256.898438 199.582031 259.824219 199.582031 263.398438 C 199.582031 266.9375 196.691406 269.863281 193.117188 269.863281 Z M 193.148438 84.117188 L 161.828125 84.117188 C 158.253906 84.117188 155.328125 81.191406 155.328125 77.617188 C 155.328125 74.046875 158.253906 71.152344 161.828125 71.152344 L 193.148438 71.1875 C 196.722656 71.1875 199.613281 74.109375 199.613281 77.652344 C 199.582031 81.226562 196.722656 84.117188 193.148438 84.117188 Z M 193.148438 84.117188 " fill-opacity="1" fill-rule="nonzero"/></g><path fill="#5e17eb" d="M 207.542969 97.664062 L 215.207031 128.367188 L 215.242188 85.613281 C 209.878906 86.910156 206.46875 92.238281 207.542969 97.664062 Z M 207.542969 97.664062 " fill-opacity="1" fill-rule="nonzero"/><g clip-path="url(#55a0c8b054)"><path fill="#5e17eb" d="M 103.117188 22.96875 L 64.550781 22.9375 C 54.351562 22.9375 46.066406 31.191406 46.03125 41.425781 L 45.933594 278.667969 C 45.902344 288.835938 54.1875 297.15625 64.390625 297.15625 L 102.957031 297.1875 C 113.191406 297.1875 121.476562 288.902344 121.476562 278.734375 L 121.574219 41.488281 C 121.605469 31.253906 113.320312 22.96875 103.117188 22.96875 Z M 99.480469 269.863281 L 68.125 269.832031 C 64.585938 269.832031 61.660156 266.90625 61.660156 263.363281 C 61.660156 259.792969 64.550781 256.867188 68.125 256.867188 L 99.480469 256.898438 C 103.019531 256.898438 105.945312 259.824219 105.945312 263.398438 C 105.945312 266.9375 103.019531 269.863281 99.480469 269.863281 Z M 99.480469 84.117188 L 68.160156 84.117188 C 64.585938 84.117188 61.691406 81.191406 61.691406 77.617188 C 61.691406 74.046875 64.585938 71.152344 68.160156 71.152344 L 99.480469 71.1875 C 103.054688 71.1875 105.945312 74.109375 105.945312 77.652344 C 105.945312 81.226562 103.019531 84.117188 99.480469 84.117188 Z M 99.480469 84.117188 " fill-opacity="1" fill-rule="nonzero"/></g><g fill="#000000" fill-opacity="1"><g transform="translate(44.525544, 341.070202)"><g><path d="M 2.640625 0.125 C 2.378906 0.125 2.179688 0.03125 2.046875 -0.15625 C 1.921875 -0.34375 1.859375 -0.570312 1.859375 -0.84375 C 1.878906 -1.28125 1.960938 -1.539062 2.109375 -1.625 C 2.265625 -1.71875 2.546875 -1.765625 2.953125 -1.765625 C 3.804688 -1.765625 4.4375 -1.914062 4.84375 -2.21875 C 5.257812 -2.53125 5.519531 -2.914062 5.625 -3.375 C 5.726562 -3.832031 5.796875 -4.425781 5.828125 -5.15625 L 5.828125 -22.6875 C 5.796875 -23.414062 5.726562 -24.007812 5.625 -24.46875 C 5.519531 -24.925781 5.257812 -25.304688 4.84375 -25.609375 C 4.4375 -25.921875 3.804688 -26.078125 2.953125 -26.078125 L 2.6875 -26.078125 C 2.394531 -26.078125 2.1875 -26.128906 2.0625 -26.234375 C 1.945312 -26.335938 1.878906 -26.59375 1.859375 -27 C 1.859375 -27.269531 1.921875 -27.5 2.046875 -27.6875 C 2.179688 -27.875 2.378906 -27.96875 2.640625 -27.96875 C 4.554688 -27.882812 6.296875 -27.84375 7.859375 -27.84375 L 14.078125 -27.84375 C 15.691406 -27.84375 17 -27.722656 18 -27.484375 C 19 -27.253906 19.894531 -26.890625 20.6875 -26.390625 C 21.457031 -25.890625 22.0625 -25.203125 22.5 -24.328125 C 22.945312 -23.460938 23.171875 -22.515625 23.171875 -21.484375 C 23.171875 -19.660156 22.570312 -18.210938 21.375 -17.140625 C 20.1875 -16.066406 18.796875 -15.335938 17.203125 -14.953125 L 17.203125 -14.828125 C 18.734375 -14.828125 20.125 -14.523438 21.375 -13.921875 C 22.625 -13.316406 23.59375 -12.503906 24.28125 -11.484375 C 24.976562 -10.472656 25.328125 -9.378906 25.328125 -8.203125 C 25.328125 -6.203125 24.71875 -4.582031 23.5 -3.34375 C 22.28125 -2.113281 20.75 -1.238281 18.90625 -0.71875 C 17.070312 -0.207031 15.164062 0.046875 13.1875 0.046875 L 7.890625 0 C 6.304688 0 4.554688 0.0390625 2.640625 0.125 Z M 12.046875 -15.703125 C 13.222656 -15.703125 14.242188 -15.789062 15.109375 -15.96875 C 15.984375 -16.144531 16.753906 -16.613281 17.421875 -17.375 C 18.097656 -18.144531 18.4375 -19.335938 18.4375 -20.953125 C 18.4375 -24.453125 16.71875 -26.203125 13.28125 -26.203125 L 10.1875 -26.203125 L 10.1875 -15.703125 Z M 13.375 -1.71875 C 15.550781 -1.75 17.289062 -2.285156 18.59375 -3.328125 C 19.90625 -4.367188 20.5625 -6.082031 20.5625 -8.46875 C 20.414062 -10.0625 19.671875 -11.367188 18.328125 -12.390625 C 16.992188 -13.421875 14.882812 -13.9375 12 -13.9375 L 10.1875 -13.9375 L 10.1875 -5.15625 C 10.1875 -4.15625 10.28125 -3.410156 10.46875 -2.921875 C 10.664062 -2.441406 10.976562 -2.117188 11.40625 -1.953125 C 11.832031 -1.796875 12.488281 -1.71875 13.375 -1.71875 Z M 13.375 -1.71875 "/></g></g></g><g fill="#000000" fill-opacity="1"><g transform="translate(81.280941, 341.070202)"><g><path d="M 2.640625 0.125 C 2.378906 0.125 2.179688 0.03125 2.046875 -0.15625 C 1.921875 -0.34375 1.859375 -0.570312 1.859375 -0.84375 C 1.878906 -1.28125 1.96875 -1.539062 2.125 -1.625 C 2.289062 -1.71875 2.566406 -1.765625 2.953125 -1.765625 C 3.804688 -1.765625 4.4375 -1.914062 4.84375 -2.21875 C 5.257812 -2.53125 5.523438 -2.90625 5.640625 -3.34375 C 5.765625 -3.789062 5.84375 -4.394531 5.875 -5.15625 L 5.875 -22.6875 C 5.84375 -23.445312 5.765625 -24.046875 5.640625 -24.484375 C 5.523438 -24.929688 5.257812 -25.304688 4.84375 -25.609375 C 4.4375 -25.921875 3.804688 -26.078125 2.953125 -26.078125 L 2.6875 -26.078125 C 2.425781 -26.078125 2.226562 -26.128906 2.09375 -26.234375 C 1.957031 -26.335938 1.878906 -26.59375 1.859375 -27 C 1.859375 -27.269531 1.921875 -27.5 2.046875 -27.6875 C 2.179688 -27.875 2.378906 -27.96875 2.640625 -27.96875 C 4.554688 -27.882812 6.304688 -27.84375 7.890625 -27.84375 C 9.660156 -27.84375 11.5 -27.882812 13.40625 -27.96875 C 13.675781 -27.96875 13.875 -27.875 14 -27.6875 C 14.132812 -27.5 14.203125 -27.269531 14.203125 -27 C 14.179688 -26.5625 14.085938 -26.296875 13.921875 -26.203125 C 13.753906 -26.117188 13.46875 -26.078125 13.0625 -26.078125 C 12.207031 -26.078125 11.570312 -25.921875 11.15625 -25.609375 C 10.75 -25.304688 10.492188 -24.925781 10.390625 -24.46875 C 10.285156 -24.007812 10.21875 -23.414062 10.1875 -22.6875 L 10.1875 -5.15625 C 10.21875 -4.425781 10.285156 -3.832031 10.390625 -3.375 C 10.492188 -2.914062 10.75 -2.53125 11.15625 -2.21875 C 11.570312 -1.914062 12.207031 -1.765625 13.0625 -1.765625 L 13.328125 -1.765625 C 13.617188 -1.765625 13.832031 -1.710938 13.96875 -1.609375 C 14.101562 -1.503906 14.179688 -1.25 14.203125 -0.84375 C 14.203125 -0.570312 14.132812 -0.34375 14 -0.15625 C 13.875 0.03125 13.675781 0.125 13.40625 0.125 C 11.53125 0.0390625 9.707031 0 7.9375 0 C 6.320312 0 4.554688 0.0390625 2.640625 0.125 Z M 2.640625 0.125 "/></g></g></g><g fill="#000000" fill-opacity="1"><g transform="translate(106.696756, 341.070202)"><g><path d="M 2.640625 0.125 C 2.378906 0.125 2.179688 0.03125 2.046875 -0.15625 C 1.921875 -0.34375 1.859375 -0.570312 1.859375 -0.84375 C 1.878906 -1.28125 1.960938 -1.539062 2.109375 -1.625 C 2.265625 -1.71875 2.546875 -1.765625 2.953125 -1.765625 C 3.804688 -1.765625 4.4375 -1.914062 4.84375 -2.21875 C 5.257812 -2.53125 5.519531 -2.914062 5.625 -3.375 C 5.726562 -3.832031 5.796875 -4.425781 5.828125 -5.15625 L 5.828125 -22.6875 C 5.796875 -23.414062 5.726562 -24.007812 5.625 -24.46875 C 5.519531 -24.925781 5.257812 -25.304688 4.84375 -25.609375 C 4.4375 -25.921875 3.804688 -26.078125 2.953125 -26.078125 L 2.6875 -26.078125 C 2.394531 -26.078125 2.1875 -26.128906 2.0625 -26.234375 C 1.945312 -26.335938 1.878906 -26.59375 1.859375 -27 C 1.859375 -27.269531 1.921875 -27.5 2.046875 -27.6875 C 2.179688 -27.875 2.378906 -27.96875 2.640625 -27.96875 C 4.554688 -27.882812 6.296875 -27.84375 7.859375 -27.84375 L 14.078125 -27.84375 C 15.691406 -27.84375 17 -27.722656 18 -27.484375 C 19 -27.253906 19.894531 -26.890625 20.6875 -26.390625 C 21.457031 -25.890625 22.0625 -25.203125 22.5 -24.328125 C 22.945312 -23.460938 23.171875 -22.515625 23.171875 -21.484375 C 23.171875 -19.660156 22.570312 -18.210938 21.375 -17.140625 C 20.1875 -16.066406 18.796875 -15.335938 17.203125 -14.953125 L 17.203125 -14.828125 C 18.734375 -14.828125 20.125 -14.523438 21.375 -13.921875 C 22.625 -13.316406 23.59375 -12.503906 24.28125 -11.484375 C 24.976562 -10.472656 25.328125 -9.378906 25.328125 -8.203125 C 25.328125 -6.203125 24.71875 -4.582031 23.5 -3.34375 C 22.28125 -2.113281 20.75 -1.238281 18.90625 -0.71875 C 17.070312 -0.207031 15.164062 0.046875 13.1875 0.046875 L 7.890625 0 C 6.304688 0 4.554688 0.0390625 2.640625 0.125 Z M 12.046875 -15.703125 C 13.222656 -15.703125 14.242188 -15.789062 15.109375 -15.96875 C 15.984375 -16.144531 16.753906 -16.613281 17.421875 -17.375 C 18.097656 -18.144531 18.4375 -19.335938 18.4375 -20.953125 C 18.4375 -24.453125 16.71875 -26.203125 13.28125 -26.203125 L 10.1875 -26.203125 L 10.1875 -15.703125 Z M 13.375 -1.71875 C 15.550781 -1.75 17.289062 -2.285156 18.59375 -3.328125 C 19.90625 -4.367188 20.5625 -6.082031 20.5625 -8.46875 C 20.414062 -10.0625 19.671875 -11.367188 18.328125 -12.390625 C 16.992188 -13.421875 14.882812 -13.9375 12 -13.9375 L 10.1875 -13.9375 L 10.1875 -5.15625 C 10.1875 -4.15625 10.28125 -3.410156 10.46875 -2.921875 C 10.664062 -2.441406 10.976562 -2.117188 11.40625 -1.953125 C 11.832031 -1.796875 12.488281 -1.71875 13.375 -1.71875 Z M 13.375 -1.71875 "/></g></g></g><g fill="#000000" fill-opacity="1"><g transform="translate(143.452154, 341.070202)"><g><path d="M 2.640625 0.125 C 2.410156 0.125 2.226562 0.03125 2.09375 -0.15625 C 1.957031 -0.34375 1.890625 -0.570312 1.890625 -0.84375 C 1.921875 -1.28125 2.007812 -1.539062 2.15625 -1.625 C 2.300781 -1.71875 2.582031 -1.765625 3 -1.765625 C 3.851562 -1.765625 4.484375 -1.914062 4.890625 -2.21875 C 5.304688 -2.53125 5.566406 -2.914062 5.671875 -3.375 C 5.773438 -3.832031 5.84375 -4.425781 5.875 -5.15625 L 5.875 -22.6875 C 5.84375 -23.414062 5.773438 -24.007812 5.671875 -24.46875 C 5.566406 -24.925781 5.304688 -25.304688 4.890625 -25.609375 C 4.484375 -25.921875 3.851562 -26.078125 3 -26.078125 L 2.734375 -26.078125 C 2.441406 -26.078125 2.234375 -26.128906 2.109375 -26.234375 C 1.992188 -26.335938 1.921875 -26.59375 1.890625 -27 C 1.890625 -27.269531 1.957031 -27.5 2.09375 -27.6875 C 2.226562 -27.875 2.410156 -27.96875 2.640625 -27.96875 C 4.585938 -27.882812 6.335938 -27.84375 7.890625 -27.84375 C 9.660156 -27.84375 11.5 -27.882812 13.40625 -27.96875 C 13.675781 -27.96875 13.875 -27.875 14 -27.6875 C 14.132812 -27.5 14.203125 -27.269531 14.203125 -27 C 14.179688 -26.5625 14.085938 -26.296875 13.921875 -26.203125 C 13.753906 -26.117188 13.484375 -26.078125 13.109375 -26.078125 C 12.253906 -26.078125 11.617188 -25.921875 11.203125 -25.609375 C 10.796875 -25.304688 10.539062 -24.925781 10.4375 -24.46875 C 10.332031 -24.007812 10.265625 -23.414062 10.234375 -22.6875 L 10.234375 -4.5 C 10.296875 -3.882812 10.367188 -3.40625 10.453125 -3.0625 C 10.546875 -2.726562 10.8125 -2.421875 11.25 -2.140625 C 11.6875 -1.859375 12.378906 -1.734375 13.328125 -1.765625 L 17.296875 -1.765625 C 18.328125 -1.796875 19.109375 -1.960938 19.640625 -2.265625 C 20.171875 -2.578125 20.585938 -3.054688 20.890625 -3.703125 C 21.203125 -4.347656 21.578125 -5.410156 22.015625 -6.890625 C 22.222656 -7.410156 22.722656 -7.613281 23.515625 -7.5 C 23.785156 -7.4375 24.035156 -7.316406 24.265625 -7.140625 C 24.503906 -6.972656 24.609375 -6.753906 24.578125 -6.484375 L 23.6875 -0.921875 C 23.601562 -0.546875 23.472656 -0.296875 23.296875 -0.171875 C 23.117188 -0.0546875 22.828125 0 22.421875 0 L 7.9375 0 C 6.351562 0 4.585938 0.0390625 2.640625 0.125 Z M 2.640625 0.125 "/></g></g></g><g fill="#000000" fill-opacity="1"><g transform="translate(178.001408, 341.070202)"><g><path d="M 2.640625 0.125 C 2.378906 0.125 2.179688 0.03125 2.046875 -0.15625 C 1.921875 -0.34375 1.859375 -0.570312 1.859375 -0.84375 C 1.878906 -1.28125 1.96875 -1.539062 2.125 -1.625 C 2.289062 -1.71875 2.566406 -1.765625 2.953125 -1.765625 C 3.804688 -1.765625 4.4375 -1.914062 4.84375 -2.21875 C 5.257812 -2.53125 5.523438 -2.90625 5.640625 -3.34375 C 5.765625 -3.789062 5.84375 -4.394531 5.875 -5.15625 L 5.875 -22.6875 C 5.84375 -23.445312 5.765625 -24.046875 5.640625 -24.484375 C 5.523438 -24.929688 5.257812 -25.304688 4.84375 -25.609375 C 4.4375 -25.921875 3.804688 -26.078125 2.953125 -26.078125 L 2.6875 -26.078125 C 2.425781 -26.078125 2.226562 -26.128906 2.09375 -26.234375 C 1.957031 -26.335938 1.878906 -26.59375 1.859375 -27 C 1.859375 -27.269531 1.921875 -27.5 2.046875 -27.6875 C 2.179688 -27.875 2.378906 -27.96875 2.640625 -27.96875 C 4.554688 -27.882812 6.304688 -27.84375 7.890625 -27.84375 C 9.660156 -27.84375 11.5 -27.882812 13.40625 -27.96875 C 13.675781 -27.96875 13.875 -27.875 14 -27.6875 C 14.132812 -27.5 14.203125 -27.269531 14.203125 -27 C 14.179688 -26.5625 14.085938 -26.296875 13.921875 -26.203125 C 13.753906 -26.117188 13.46875 -26.078125 13.0625 -26.078125 C 12.207031 -26.078125 11.570312 -25.921875 11.15625 -25.609375 C 10.75 -25.304688 10.492188 -24.925781 10.390625 -24.46875 C 10.285156 -24.007812 10.21875 -23.414062 10.1875 -22.6875 L 10.1875 -5.15625 C 10.21875 -4.425781 10.285156 -3.832031 10.390625 -3.375 C 10.492188 -2.914062 10.75 -2.53125 11.15625 -2.21875 C 11.570312 -1.914062 12.207031 -1.765625 13.0625 -1.765625 L 13.328125 -1.765625 C 13.617188 -1.765625 13.832031 -1.710938 13.96875 -1.609375 C 14.101562 -1.503906 14.179688 -1.25 14.203125 -0.84375 C 14.203125 -0.570312 14.132812 -0.34375 14 -0.15625 C 13.875 0.03125 13.675781 0.125 13.40625 0.125 C 11.53125 0.0390625 9.707031 0 7.9375 0 C 6.320312 0 4.554688 0.0390625 2.640625 0.125 Z M 2.640625 0.125 "/></g></g></g><g fill="#000000" fill-opacity="1"><g transform="translate(203.417224, 341.070202)"><g><path d="M 16.15625 0.875 C 13.351562 0.875 10.882812 0.207031 8.75 -1.125 C 6.625 -2.46875 4.976562 -4.238281 3.8125 -6.4375 C 2.65625 -8.644531 2.078125 -11.015625 2.078125 -13.546875 C 2.078125 -16.628906 2.773438 -19.316406 4.171875 -21.609375 C 5.566406 -23.910156 7.351562 -25.671875 9.53125 -26.890625 C 11.707031 -28.109375 13.914062 -28.71875 16.15625 -28.71875 C 18.976562 -28.71875 21.46875 -28.046875 23.625 -26.703125 C 25.789062 -25.367188 27.453125 -23.609375 28.609375 -21.421875 C 29.773438 -19.234375 30.359375 -16.875 30.359375 -14.34375 C 30.359375 -11.25 29.648438 -8.546875 28.234375 -6.234375 C 26.828125 -3.929688 25.019531 -2.171875 22.8125 -0.953125 C 20.601562 0.265625 18.382812 0.875 16.15625 0.875 Z M 16.109375 -1.0625 C 18.109375 -1.0625 19.773438 -1.65625 21.109375 -2.84375 C 22.453125 -4.039062 23.453125 -5.644531 24.109375 -7.65625 C 24.773438 -9.664062 25.109375 -11.894531 25.109375 -14.34375 C 25.109375 -16.601562 24.769531 -18.679688 24.09375 -20.578125 C 23.414062 -22.484375 22.398438 -24 21.046875 -25.125 C 19.691406 -26.257812 18.046875 -26.828125 16.109375 -26.828125 C 13.160156 -26.828125 10.941406 -25.582031 9.453125 -23.09375 C 7.972656 -20.613281 7.234375 -17.472656 7.234375 -13.671875 C 7.234375 -11.378906 7.5625 -9.273438 8.21875 -7.359375 C 8.882812 -5.453125 9.878906 -3.925781 11.203125 -2.78125 C 12.523438 -1.632812 14.160156 -1.0625 16.109375 -1.0625 Z M 16.109375 -1.0625 "/></g></g></g><g fill="#000000" fill-opacity="1"><g transform="translate(245.202644, 341.070202)"><g><path d="M 7.890625 0.125 C 7.628906 0.125 7.429688 0.03125 7.296875 -0.15625 C 7.171875 -0.34375 7.109375 -0.570312 7.109375 -0.84375 C 7.128906 -1.28125 7.210938 -1.539062 7.359375 -1.625 C 7.515625 -1.71875 7.796875 -1.765625 8.203125 -1.765625 C 9.054688 -1.765625 9.6875 -1.914062 10.09375 -2.21875 C 10.507812 -2.53125 10.769531 -2.914062 10.875 -3.375 C 10.976562 -3.832031 11.046875 -4.425781 11.078125 -5.15625 L 11.078125 -26.203125 L 8.03125 -26.203125 C 7.03125 -26.179688 6.253906 -25.96875 5.703125 -25.5625 C 5.160156 -25.164062 4.75 -24.578125 4.46875 -23.796875 C 4.195312 -23.023438 3.957031 -21.914062 3.75 -20.46875 C 3.71875 -20.238281 3.539062 -20.050781 3.21875 -19.90625 C 2.894531 -19.757812 2.554688 -19.6875 2.203125 -19.6875 C 1.941406 -19.6875 1.695312 -19.765625 1.46875 -19.921875 C 1.25 -20.085938 1.140625 -20.300781 1.140625 -20.5625 L 1.28125 -26.78125 C 1.28125 -27.488281 1.675781 -27.84375 2.46875 -27.84375 L 24.046875 -27.84375 C 24.816406 -27.84375 25.203125 -27.488281 25.203125 -26.78125 L 25.375 -20.5625 C 25.375 -20.300781 25.253906 -20.085938 25.015625 -19.921875 C 24.785156 -19.765625 24.535156 -19.6875 24.265625 -19.6875 C 23.910156 -19.6875 23.578125 -19.757812 23.265625 -19.90625 C 22.960938 -20.050781 22.796875 -20.238281 22.765625 -20.46875 C 22.535156 -21.945312 22.285156 -23.066406 22.015625 -23.828125 C 21.753906 -24.585938 21.34375 -25.164062 20.78125 -25.5625 C 20.21875 -25.96875 19.4375 -26.179688 18.4375 -26.203125 L 15.4375 -26.203125 L 15.4375 -5.15625 C 15.46875 -4.425781 15.535156 -3.832031 15.640625 -3.375 C 15.742188 -2.914062 16 -2.53125 16.40625 -2.21875 C 16.820312 -1.914062 17.457031 -1.765625 18.3125 -1.765625 L 18.578125 -1.765625 C 18.835938 -1.765625 19.035156 -1.710938 19.171875 -1.609375 C 19.304688 -1.503906 19.390625 -1.25 19.421875 -0.84375 C 19.421875 -0.570312 19.351562 -0.34375 19.21875 -0.15625 C 19.082031 0.03125 18.882812 0.125 18.625 0.125 C 16.738281 0.0390625 15 0 13.40625 0 C 11.644531 0 9.804688 0.0390625 7.890625 0.125 Z M 7.890625 0.125 "/></g></g></g><g fill="#000000" fill-opacity="1"><g transform="translate(281.031475, 341.070202)"><g><path d="M 2.640625 0.125 C 2.410156 0.125 2.226562 0.03125 2.09375 -0.15625 C 1.957031 -0.34375 1.890625 -0.570312 1.890625 -0.84375 C 1.921875 -1.28125 2.007812 -1.539062 2.15625 -1.625 C 2.300781 -1.71875 2.582031 -1.765625 3 -1.765625 C 3.851562 -1.765625 4.484375 -1.914062 4.890625 -2.21875 C 5.304688 -2.53125 5.566406 -2.914062 5.671875 -3.375 C 5.773438 -3.832031 5.84375 -4.425781 5.875 -5.15625 L 5.875 -22.6875 C 5.84375 -23.414062 5.773438 -24.007812 5.671875 -24.46875 C 5.566406 -24.925781 5.304688 -25.304688 4.890625 -25.609375 C 4.484375 -25.921875 3.851562 -26.078125 3 -26.078125 L 2.734375 -26.078125 C 2.441406 -26.078125 2.234375 -26.128906 2.109375 -26.234375 C 1.992188 -26.335938 1.921875 -26.59375 1.890625 -27 C 1.890625 -27.269531 1.957031 -27.5 2.09375 -27.6875 C 2.226562 -27.875 2.410156 -27.96875 2.640625 -27.96875 C 4.585938 -27.882812 6.335938 -27.84375 7.890625 -27.84375 L 21.75 -27.84375 C 22.519531 -27.84375 22.90625 -27.488281 22.90625 -26.78125 L 23.03125 -20.609375 C 23.03125 -20.335938 22.894531 -20.117188 22.625 -19.953125 C 22.363281 -19.796875 22.101562 -19.71875 21.84375 -19.71875 C 21.488281 -19.71875 21.175781 -19.785156 20.90625 -19.921875 C 20.644531 -20.054688 20.5 -20.253906 20.46875 -20.515625 C 20.238281 -21.960938 19.984375 -23.0625 19.703125 -23.8125 C 19.421875 -24.5625 19.007812 -25.117188 18.46875 -25.484375 C 17.925781 -25.847656 17.15625 -26.046875 16.15625 -26.078125 L 10.234375 -26.078125 L 10.234375 -14.875 L 18.21875 -14.875 C 18.425781 -14.84375 18.585938 -14.726562 18.703125 -14.53125 C 18.828125 -14.34375 18.890625 -14.117188 18.890625 -13.859375 C 18.890625 -13.617188 18.828125 -13.410156 18.703125 -13.234375 C 18.585938 -13.054688 18.425781 -12.96875 18.21875 -12.96875 L 10.234375 -12.96875 L 10.234375 -4.640625 C 10.296875 -4.015625 10.367188 -3.519531 10.453125 -3.15625 C 10.546875 -2.789062 10.8125 -2.457031 11.25 -2.15625 C 11.6875 -1.863281 12.378906 -1.734375 13.328125 -1.765625 L 17.390625 -1.765625 C 18.410156 -1.796875 19.1875 -1.960938 19.71875 -2.265625 C 20.25 -2.578125 20.664062 -3.054688 20.96875 -3.703125 C 21.28125 -4.347656 21.660156 -5.410156 22.109375 -6.890625 C 22.316406 -7.410156 22.816406 -7.613281 23.609375 -7.5 C 23.898438 -7.4375 24.15625 -7.316406 24.375 -7.140625 C 24.59375 -6.972656 24.691406 -6.753906 24.671875 -6.484375 L 23.78125 -0.921875 C 23.695312 -0.546875 23.566406 -0.296875 23.390625 -0.171875 C 23.210938 -0.0546875 22.914062 0 22.5 0 L 7.9375 0 C 6.351562 0 4.585938 0.0390625 2.640625 0.125 Z M 2.640625 0.125 "/></g></g></g><g fill="#000000" fill-opacity="1"><g transform="translate(316.595577, 341.070202)"><g><path d="M 2.6875 0.125 C 2.425781 0.125 2.226562 0.03125 2.09375 -0.15625 C 1.957031 -0.34375 1.890625 -0.570312 1.890625 -0.84375 C 1.921875 -1.28125 2.007812 -1.539062 2.15625 -1.625 C 2.300781 -1.71875 2.582031 -1.765625 3 -1.765625 C 3.851562 -1.765625 4.484375 -1.914062 4.890625 -2.21875 C 5.304688 -2.53125 5.566406 -2.914062 5.671875 -3.375 C 5.773438 -3.832031 5.84375 -4.425781 5.875 -5.15625 L 5.875 -22.6875 C 5.84375 -23.414062 5.773438 -24.007812 5.671875 -24.46875 C 5.566406 -24.925781 5.304688 -25.304688 4.890625 -25.609375 C 4.484375 -25.921875 3.851562 -26.078125 3 -26.078125 L 2.734375 -26.078125 C 2.441406 -26.078125 2.234375 -26.128906 2.109375 -26.234375 C 1.992188 -26.335938 1.921875 -26.59375 1.890625 -27 C 1.890625 -27.269531 1.957031 -27.5 2.09375 -27.6875 C 2.226562 -27.875 2.425781 -27.96875 2.6875 -27.96875 C 4.601562 -27.882812 6.335938 -27.84375 7.890625 -27.84375 C 9.660156 -27.84375 11.5 -27.882812 13.40625 -27.96875 C 13.675781 -27.96875 13.875 -27.875 14 -27.6875 C 14.132812 -27.5 14.203125 -27.269531 14.203125 -27 C 14.179688 -26.5625 14.09375 -26.296875 13.9375 -26.203125 C 13.789062 -26.117188 13.515625 -26.078125 13.109375 -26.078125 C 12.253906 -26.078125 11.617188 -25.921875 11.203125 -25.609375 C 10.796875 -25.304688 10.539062 -24.925781 10.4375 -24.46875 C 10.332031 -24.007812 10.265625 -23.414062 10.234375 -22.6875 L 10.234375 -14.6875 C 10.703125 -14.78125 11.226562 -15.03125 11.8125 -15.4375 C 12.40625 -15.851562 13.128906 -16.429688 13.984375 -17.171875 C 15.628906 -18.691406 17.703125 -20.941406 20.203125 -23.921875 C 20.734375 -24.503906 21 -24.972656 21 -25.328125 C 21 -25.765625 20.601562 -26 19.8125 -26.03125 C 19.601562 -26.0625 19.460938 -26.140625 19.390625 -26.265625 C 19.316406 -26.398438 19.25 -26.628906 19.1875 -26.953125 C 19.1875 -27.222656 19.257812 -27.457031 19.40625 -27.65625 C 19.5625 -27.863281 19.753906 -27.96875 19.984375 -27.96875 C 21.015625 -27.882812 22.632812 -27.84375 24.84375 -27.84375 C 25.550781 -27.84375 26.582031 -27.875 27.9375 -27.9375 L 28.859375 -27.96875 C 29.117188 -27.96875 29.320312 -27.875 29.46875 -27.6875 C 29.625 -27.5 29.703125 -27.253906 29.703125 -26.953125 C 29.671875 -26.546875 29.578125 -26.289062 29.421875 -26.1875 C 29.273438 -26.082031 29.070312 -26.03125 28.8125 -26.03125 C 27.632812 -26.09375 26.523438 -25.898438 25.484375 -25.453125 C 24.441406 -25.015625 23.34375 -24.222656 22.1875 -23.078125 L 15.046875 -15.625 C 16.078125 -14.351562 17.132812 -13.144531 18.21875 -12 C 19.3125 -10.851562 20.625 -9.515625 22.15625 -7.984375 C 22.914062 -7.222656 23.828125 -6.28125 24.890625 -5.15625 C 25.210938 -4.832031 25.429688 -4.597656 25.546875 -4.453125 C 26.484375 -3.515625 27.222656 -2.851562 27.765625 -2.46875 C 28.316406 -2.082031 28.988281 -1.847656 29.78125 -1.765625 C 29.84375 -1.765625 29.972656 -1.753906 30.171875 -1.734375 C 30.378906 -1.722656 30.550781 -1.644531 30.6875 -1.5 C 30.820312 -1.351562 30.890625 -1.132812 30.890625 -0.84375 C 30.890625 -0.570312 30.820312 -0.34375 30.6875 -0.15625 C 30.550781 0.03125 30.351562 0.125 30.09375 0.125 C 29.738281 0.101562 29.3125 0.09375 28.8125 0.09375 C 27.75 0.03125 26.925781 0 26.34375 0 L 23.515625 0 C 19.628906 -4.320312 16.160156 -8.25 13.109375 -11.78125 C 12.160156 -12.863281 11.203125 -13.453125 10.234375 -13.546875 L 10.234375 -5.15625 C 10.265625 -4.425781 10.332031 -3.832031 10.4375 -3.375 C 10.539062 -2.914062 10.796875 -2.53125 11.203125 -2.21875 C 11.617188 -1.914062 12.253906 -1.765625 13.109375 -1.765625 L 13.375 -1.765625 C 13.664062 -1.765625 13.867188 -1.710938 13.984375 -1.609375 C 14.109375 -1.503906 14.179688 -1.25 14.203125 -0.84375 C 14.203125 -0.570312 14.132812 -0.34375 14 -0.15625 C 13.875 0.03125 13.675781 0.125 13.40625 0.125 C 11.53125 0.0390625 9.707031 0 7.9375 0 C 6.351562 0 4.601562 0.0390625 2.6875 0.125 Z M 2.6875 0.125 "/></g></g></g></svg>